<svg xmlns="http://www.w3.org/2000/svg" viewBox="0 0 64 64">
  <rect width="64" height="64" rx="14" fill="#0A1A2E"/>
  <path d="M32 12c2 0 4 1 5 3l3 6 5 1c2 0 3 2 3 4l-1 6 3 5c1 2 0 4-2 5l-5 2-2 6c-1 2-3 3-5 2l-5-2-5 2c-2 1-4 0-5-2l-2-6-5-2c-2-1-3-3-2-5l3-5-1-6c0-2 1-4 3-4l5-1 3-6c1-2 3-3 5-3z" fill="#5DAEB8" opacity="0.18"/>
  <path d="M28 18c4-1 8 0 11 3 2 2 3 5 3 8 0 4-2 8-5 10l-2 1 1 4c0 2-1 3-3 3l-3-1c-3-1-6-3-8-7-2-3-2-7-1-11 1-4 4-8 7-10z" fill="#5DAEB8"/>
  <circle cx="38" cy="26" r="2" fill="#0A1A2E"/>
</svg>
